<?xml version="1.0" encoding="UTF-8"?>
<svg id="Filled" xmlns="http://www.w3.org/2000/svg" version="1.1" viewBox="0 0 512 512">
  <!-- Generator: Adobe Illustrator 29.3.0, SVG Export Plug-In . SVG Version: 2.1.0 Build 146)  -->
  <defs>
    <style>
      .st0 {
        fill: #fff;
      }
    </style>
  </defs>
  <path class="st0" d="M0,405.3c0,58.9,47.8,106.6,106.7,106.7h298.7c58.9,0,106.6-47.8,106.7-106.7v-192H0v192ZM362.7,309.3c17.7,0,32,14.3,32,32s-14.3,32-32,32-32-14.3-32-32,14.3-32,32-32ZM256,309.3c17.7,0,32,14.3,32,32s-14.3,32-32,32-32-14.3-32-32,14.3-32,32-32ZM149.3,309.3c17.7,0,32,14.3,32,32s-14.3,32-32,32-32-14.3-32-32,14.3-32,32-32Z"/>
  <path class="st0" d="M405.3,42.7h-21.3v-21.3c0-11.8-9.6-21.3-21.3-21.3s-21.3,9.6-21.3,21.3v21.3h-170.7v-21.3c0-11.8-9.6-21.3-21.3-21.3s-21.3,9.6-21.3,21.3v21.3h-21.3C47.8,42.7,0,90.5,0,149.3v21.3h512v-21.3c0-58.9-47.8-106.6-106.7-106.7Z"/>
</svg>