<?xml version="1.0" encoding="UTF-8"?>
<svg id="Layer_1" xmlns="http://www.w3.org/2000/svg" version="1.1" viewBox="0 0 512 512">
  <!-- Generator: Adobe Illustrator 29.3.0, SVG Export Plug-In . SVG Version: 2.1.0 Build 146)  -->
  <defs>
    <style>
      .st0 {
        fill: #fff;
      }
    </style>
  </defs>
  <path class="st0" d="M405.3,0h-128c-58.8,0-106.7,47.9-106.7,106.7v128c0,58.8,47.9,106.7,106.7,106.7h128c58.8,0,106.7-47.9,106.7-106.7V106.7c0-58.8-47.9-106.7-106.7-106.7ZM469.3,234.7c0,35.3-28.7,64-64,64h-128c-35.3,0-64-28.7-64-64V106.7c0-35.3,28.7-64,64-64h128c35.3,0,64,28.7,64,64v128ZM341.3,405.3c0,58.8-47.9,106.7-106.7,106.7H106.7c-58.8,0-106.7-47.9-106.7-106.7v-128c0-58.8,47.9-106.7,106.7-106.7s21.3,9.6,21.3,21.3-9.5,21.3-21.3,21.3c-35.3,0-64,28.7-64,64v128c0,35.3,28.7,64,64,64h128c35.3,0,64-28.7,64-64s9.5-21.3,21.3-21.3,21.3,9.6,21.3,21.3Z"/>
</svg>