<?xml version="1.0" encoding="UTF-8"?>
<svg id="Layer_1_copy" xmlns="http://www.w3.org/2000/svg" version="1.1" viewBox="0 0 358.6 97.2">
  <!-- Generator: Adobe Illustrator 29.2.1, SVG Export Plug-In . SVG Version: 2.1.0 Build 116)  -->
  <defs>
    <style>
      .st0 {
        fill: #fff;
      }
    </style>
  </defs>
  <g>
    <path class="st0" d="M173.5,71.6h-9.7V20.1h19.8c3.5,0,6.5.7,9.1,2,2.6,1.3,4.7,3.2,6.1,5.5,1.5,2.4,2.2,5.1,2.2,8.2s-.7,5.9-2.2,8.2c-1.5,2.4-3.5,4.2-6.1,5.5-2.6,1.3-5.7,2-9.1,2h-10.1v20ZM183.6,28.3h-10.1v15.1h10.1c2.4,0,4.2-.7,5.6-2s2.1-3.2,2.1-5.5-.7-4.1-2.1-5.5-3.2-2-5.6-2Z"/>
    <path class="st0" d="M214.4,71.6h-9.5V19.8h9.5v51.9Z"/>
    <path class="st0" d="M235.4,72.8c-4,0-7.2-1.1-9.6-3.3-2.4-2.2-3.6-5-3.6-8.5s1.5-6.6,4.4-8.7c2.9-2.1,7-3.2,12.2-3.2h7.6c0-2.4-.9-4.3-2.4-5.6-1.5-1.3-3.5-2-6.1-2s-6.7,1.4-9.7,4.2l-5-5.7c4.3-3.8,9.5-5.8,15.5-5.8s9,1.4,12,4.1c3,2.7,4.5,6.4,4.5,11v22.3h-8.4v-4.4c-1.3,1.7-2.9,3.1-4.8,4.1-2,1-4.2,1.5-6.6,1.5ZM237.6,65.8c2,0,3.8-.5,5.4-1.6,1.6-1.1,2.7-2.5,3.4-4.3v-4.8h-7c-2.4,0-4.4.5-5.8,1.4-1.4,1-2.1,2.3-2.1,4s.6,2.8,1.7,3.7c1.1,1,2.6,1.4,4.4,1.4Z"/>
    <path class="st0" d="M297.5,71.6h-9.4v-4.6c-1.2,1.8-2.7,3.2-4.5,4.2-1.8,1-4,1.5-6.4,1.5-3.9,0-7.1-1.3-9.4-3.8-2.4-2.5-3.5-6.2-3.5-11v-22.6h9.5v21.6c0,2.6.6,4.6,1.7,5.9,1.1,1.3,2.7,2,4.6,2s3.4-.6,4.8-1.7c1.4-1.1,2.5-2.6,3.1-4.5v-23.3h9.5v36.2Z"/>
    <path class="st0" d="M329.2,71.6h-8.6c-6.4,0-9.6-3.3-9.6-9.9v-18.7h-5.8v-7.6h5.8v-9.6h9.5v9.6h8.3v7.6h-8.3v17.1c0,2.5,1.2,3.7,3.5,3.7h5.2v7.8Z"/>
    <path class="st0" d="M347.4,23.6c0,1.5-.6,2.9-1.7,4s-2.5,1.7-4.2,1.7-3.1-.6-4.2-1.7c-1.1-1.1-1.7-2.4-1.7-4s.6-2.9,1.7-4c1.1-1.1,2.5-1.6,4.2-1.6s3.1.5,4.2,1.6c1.1,1.1,1.7,2.4,1.7,4ZM346.3,71.6h-9.5v-36.2h9.5v36.2Z"/>
  </g>
  <path class="st0" d="M143.5,44.2L109.8,10.5c-2.4-2.4-6.4-2.4-8.8,0l-12.4,12.4c-2.4,2.4-6.4,2.4-8.8,0l-12.4-12.4c-2.4-2.4-6.4-2.4-8.8,0L14.2,54.8c-2.4,2.4-2.4,6.4,0,8.8l12.4,12.4c2.4,2.4,6.4,2.4,8.8,0l1.8-1.8c2.4-2.4,6.4-2.4,8.8,0l12.4,12.4c2.4,2.4,6.4,2.4,8.8,0l12.4-12.4c2.4-2.4,6.4-2.4,8.8,0l12.4,12.4c2.4,2.4,6.4,2.4,8.8,0l33.7-33.7c2.4-2.4,2.4-6.4,0-8.8ZM101,53l-12.4,12.4c-2.4,2.4-6.4,2.4-8.8,0l-12.4-12.4c-2.4-2.4-2.4-6.4,0-8.8l12.4-12.4c2.4-2.4,6.4-2.4,8.8,0l12.4,12.4c2.4,2.4,2.4,6.4,0,8.8Z"/>
</svg>